<?xml version="1.0" standalone="no"?><!DOCTYPE svg PUBLIC "-//W3C//DTD SVG 1.1//EN" "http://www.w3.org/Graphics/SVG/1.1/DTD/svg11.dtd"><svg t="1559310336110" class="icon" style="" viewBox="0 0 1024 1024" version="1.1" xmlns="http://www.w3.org/2000/svg" p-id="745" xmlns:xlink="http://www.w3.org/1999/xlink" width="200" height="200"><defs><style type="text/css"></style></defs><path d="M1020.586667 6.826667c-3.413333-3.413333-6.826667-6.826667-13.653334-6.826667-129.706667 6.826667-337.92 81.92-344.746666 85.333333-3.413333 0-6.826667 6.826667-10.24 10.24l-23.893334 61.44-34.133333-34.133333c-6.826667-6.826667-13.653333-6.826667-20.48-3.413333-17.066667 10.24-157.013333 88.746667-184.32 119.466666-17.066667 20.48-30.72 68.266667-37.546667 105.813334l-30.72-47.786667c-3.413333-3.413333-6.826667-6.826667-10.24-6.826667-6.826667 0-10.24 0-13.653333 3.413334-6.826667 6.826667-160.426667 170.666667-116.053333 348.16C307.2 460.8 464.213333 296.96 709.973333 177.493333c6.826667-3.413333 17.066667 0 23.893334 6.826667 3.413333 6.826667 0 17.066667-6.826667 23.893333l-61.44 30.72c-3.413333 3.413333-10.24 6.826667-13.653333 6.826667-20.48 10.24-37.546667 20.48-54.613334 34.133333-3.413333 0-6.826667 3.413333-6.826666 6.826667-17.066667 10.24-30.72 20.48-44.373334 30.72-3.413333 3.413333-10.24 6.826667-13.653333 10.24-17.066667 10.24-30.72 23.893333-44.373333 34.133333-3.413333 3.413333-10.24 6.826667-13.653334 10.24-10.24 10.24-20.48 17.066667-30.72 27.306667-6.826667 3.413333-10.24 10.24-17.066666 13.653333-13.653333 10.24-23.893333 23.893333-37.546667 34.133334l-17.066667 17.066666-20.48 20.48-20.48 20.48c-10.24 10.24-20.48 20.48-27.306666 34.133334-6.826667 10.24-13.653333 17.066667-20.48 27.306666-3.413333 3.413333-6.826667 10.24-10.24 13.653334-109.226667 133.12-191.146667 273.066667-269.653334 419.84-3.413333 6.826667-3.413333 17.066667 6.826667 23.893333h6.826667c6.826667 0 10.24-3.413333 13.653333-10.24 61.44-105.813333 116.053333-208.213333 180.906667-300.373333 20.48 23.893333 51.2 37.546667 88.746666 37.546666 163.84 0 440.32-228.693333 467.626667-300.373333v-13.653333c0-3.413333-6.826667-6.826667-10.24-10.24l-85.333333-27.306667 167.253333-23.893333c6.826667 0 10.24-3.413333 13.653333-10.24l170.666667-341.333334c0-3.413333 0-10.24-3.413333-17.066666z" fill="#515151" p-id="746"></path></svg>